<?xml version="1.0" encoding="UTF-8" standalone="no"?>
<svg
   xmlns:dc="http://purl.org/dc/elements/1.1/"
   xmlns:cc="http://creativecommons.org/ns#"
   xmlns:rdf="http://www.w3.org/1999/02/22-rdf-syntax-ns#"
   xmlns:svg="http://www.w3.org/2000/svg"
   xmlns="http://www.w3.org/2000/svg"
   xmlns:sodipodi="http://sodipodi.sourceforge.net/DTD/sodipodi-0.dtd"
   xmlns:inkscape="http://www.inkscape.org/namespaces/inkscape"
   inkscape:export-ydpi="15.36"
   inkscape:export-xdpi="15.36"
   inkscape:export-filename="C:\Users\suzuki\Desktop\logo192.png"
   inkscape:version="1.0 (4035a4fb49, 2020-05-01)"
   height="1200"
   width="1200"
   sodipodi:docname="f_inverse.svg"
   id="svg960"
   version="1.1"
   viewBox="0 -929.33503 1199.9999 1200">
  <metadata
     id="metadata966">
    <rdf:RDF>
      <cc:Work
         rdf:about="">
        <dc:format>image/svg+xml</dc:format>
        <dc:type
           rdf:resource="http://purl.org/dc/dcmitype/StillImage" />
        <dc:title></dc:title>
      </cc:Work>
    </rdf:RDF>
  </metadata>
  <defs
     id="defs964" />
  <sodipodi:namedview
     inkscape:current-layer="svg960"
     inkscape:window-maximized="0"
     inkscape:window-y="546"
     inkscape:window-x="4021"
     inkscape:cy="869.24349"
     inkscape:cx="420.9789"
     inkscape:zoom="0.70710678"
     fit-margin-bottom="0"
     fit-margin-right="0"
     fit-margin-left="0"
     fit-margin-top="0"
     showgrid="false"
     id="namedview962"
     inkscape:window-height="1561"
     inkscape:window-width="2225"
     inkscape:pageshadow="2"
     inkscape:pageopacity="0"
     guidetolerance="10"
     gridtolerance="10"
     objecttolerance="10"
     borderopacity="1"
     bordercolor="#666666"
     pagecolor="#ffffff" />
  <path
     sodipodi:nodetypes="cssscssscscccscssccssscssccsscssssscscscccccssssssscc"
     stroke-width="10"
     d="m 153.5973,145.80999 c 2.83831,1.42702 6.741,2.49728 11.70805,3.21079 4.96705,0.71351 9.22452,1.07026 12.77241,1.07026 9.22453,0 17.73947,-4.6378 25.54484,-13.9134 7.80536,-9.2756 13.48199,-19.62146 17.02988,-31.03759 7.09579,-19.264707 19.15862,-73.848045 36.18851,-163.750015 17.02989,-89.901965 33.3502,-175.522885 48.96093,-256.862755 15.61073,-81.33988 23.4161,-122.36657 23.4161,-123.08008 v -3.21078 h -50.0253 c -33.35019,0 -51.08966,-0.71351 -53.2184,-2.14053 -2.83831,-2.14052 -4.25747,-5.70806 -4.25747,-10.70261 l 7.45058,-29.96733 c 1.41915,-3.56753 4.25747,-5.3513 8.51494,-5.3513 4.25747,0 20.93257,-0.35676 50.02529,-1.07027 34.05978,0 51.08967,-0.35675 51.08967,-1.07026 0,-1.42701 3.1931,-19.2647 9.57931,-53.51307 6.38621,-34.24837 10.64368,-54.9401 12.77241,-62.07517 26.25441,-117.72877 78.05366,-176.59316 155.39773,-176.59316 26.25441,1.42701 47.89655,9.2756 64.92644,23.54575 17.02989,14.27016 25.54483,33.17812 25.54483,56.72387 0,25.68627 -7.45057,44.23747 -22.35172,55.6536 -14.90115,11.41612 -29.80231,17.48093 -44.70346,18.19444 -31.22146,0 -46.83219,-14.98366 -46.83219,-44.95098 0,-13.55665 3.90268,-25.32952 11.70805,-35.31863 7.80537,-9.98911 16.32031,-17.48094 25.54483,-22.47549 l 9.57931,-5.35131 c -11.35326,-4.28105 -21.99694,-6.42157 -31.93104,-6.42157 -8.51494,0 -16.67509,3.56754 -24.48046,10.70261 -7.80537,7.13508 -13.12721,17.12419 -15.96552,29.96733 -4.96705,20.69172 -10.64368,48.51852 -17.02989,83.4804 -6.38621,34.96187 -12.06283,64.57244 -17.02988,88.83171 -4.96705,24.25926 -7.45058,37.1024 -7.45058,38.52941 0,1.42701 19.51341,2.14052 58.54024,2.14052 31.93104,0 50.38008,0.35676 55.34713,1.07027 4.96705,0.71351 8.86974,2.85403 11.70805,6.42157 0.70958,2.85403 0,8.91884 -2.12874,18.19444 -2.12873,9.2756 -3.90268,14.98366 -5.32184,17.12419 -1.41915,3.56753 -4.61226,5.3513 -9.57931,5.3513 -4.96705,0 -24.12567,0.35676 -57.47587,1.07027 h -59.6046 l -24.48047,130.5719 c -34.05977,176.9499 -57.83066,287.543592 -71.31265,331.781071 -19.15863,60.648153 -43.99388,105.599139 -74.50576,134.852969 -26.25441,22.83224 -52.15403,34.24836 -77.69886,34.24836 -22.70651,0 -43.28429,-6.77832 -61.73333,-20.33496 -18.449049,-13.55665 -27.673573,-32.82137 -27.673573,-57.79414 0,-26.399784 7.450578,-45.664491 22.351733,-57.794121 14.90115,-12.129631 29.8023,-18.194446 44.70344,-18.194446 31.22146,0 46.83219,14.983661 46.83219,44.950984 0,13.556649 -3.90268,25.329523 -11.70804,35.318633 -7.80537,9.98911 -16.32031,17.48094 -25.54483,22.47549 -11.12557,6.77929 -11.51406,3.34863 -3.19311,7.49183 z"
     id="path950"
     style="fill:#ffffff;fill-opacity:1;stroke:#000080;stroke-width:20;stroke-miterlimit:4;stroke-dasharray:none;stroke-opacity:1" />
  <path
     sodipodi:nodetypes="ccccc"
     id="path952"
     d="M 598.94323,-565.83185 H 828.5544 v 59.74307 H 598.94323 Z"
     stroke-width="4.90085"
     style="fill:#ffffff;fill-opacity:1;stroke:#000080;stroke-width:20;stroke-miterlimit:4;stroke-dasharray:none;stroke-opacity:1" />
  <path
     sodipodi:nodetypes="ccsccccsscscccssscccsccccssccc"
     id="path954"
     d="m 961.02413,-793.85791 -11.52626,4.3955 c -8.27528,2.93031 -20.09712,5.86063 -35.46551,8.79094 -15.36839,2.93034 -32.51003,4.98155 -51.42494,6.15368 h -16.84608 v -40.43842 h 16.84608 c 27.78126,-1.17213 53.49373,-5.56762 77.13741,-13.18645 23.64369,-7.61884 40.19426,-14.65161 49.65167,-21.09832 9.45755,-6.44671 17.7328,-12.89342 24.8259,-19.34013 1.1822,-1.75818 4.7286,-2.63728 10.6395,-2.63728 5.3199,0 10.3442,1.7582 15.0728,5.27458 v 262.84983 l 0.8867,263.72893 c 4.1377,4.10243 7.6842,6.73973 10.6396,7.91187 2.9556,1.17213 10.0487,2.34424 21.2793,3.51637 11.2307,1.17213 29.5545,1.7582 54.9716,1.7582 h 23.0526 v 40.43843 h -9.7531 c -12.4129,-1.75818 -59.4046,-2.63728 -140.9754,-2.63728 -80.38831,0 -126.78897,0.8791 -139.20183,2.63728 H 850.1945 v -40.43843 h 23.05259 33.6921 c 9.45745,0 16.84611,-0.29303 22.16597,-0.8791 5.31985,-0.58607 10.04859,-1.46517 14.18618,-2.6373 8.17297,-2.59617 11.52691,-2.91581 17.73279,-9.67004 z"
     stroke-width="7.07107"
     style="fill:#ffffff;fill-opacity:1;stroke:#000080;stroke-width:23.3962;stroke-miterlimit:4;stroke-dasharray:none;stroke-opacity:1" />
</svg>
